<svg t="1599293102968" class="icon" viewBox="0 0 1024 1024" version="1.1" xmlns="http://www.w3.org/2000/svg" p-id="3814" width="200" height="200"><path d="M934.4 256c-70.41024-121.61024-179.2-204.8-313.61024-236.81024-185.58976-51.2-384 6.41024-512 153.6L19.23072 115.22048l6.38976 224.01024c0 19.18976 25.6 31.98976 38.4 19.18976l192-115.2-89.6-44.81024C281.6 76.8 454.41024 31.98976 614.4 70.38976 729.6 102.4 832 179.2 889.61024 281.6c63.97952 108.78976 76.8 230.4 44.78976 345.6-32.01024 115.2-108.81024 217.6-211.21024 275.18976-108.78976 64-230.4 76.8-345.57952 44.81024-121.61024-32.01024-217.6-108.81024-281.6-217.6-6.41024-12.8-25.6-19.21024-38.4-12.8-12.8 6.38976-19.21024 25.6-12.8 38.4 70.38976 121.58976 179.2 204.8 313.58976 243.2 44.81024 19.18976 89.6 25.6 134.41024 25.6 89.6 0 179.2-25.6 256-70.41024 121.58976-70.38976 204.8-179.2 236.78976-313.58976 38.4-128 19.21024-262.41024-51.2-384zM665.6 716.8v-134.41024H339.18976v140.8h64v-19.18976h204.8v19.18976H665.6V716.8z m-262.41024-57.61024v-31.98976h204.8v31.98976h-204.8z m-25.6-358.4c-25.6 44.81024-51.2 83.21024-89.6 115.22048 6.41024 19.18976 19.21024 38.4 25.6 64l25.6-25.6v115.2h57.61024V563.2h300.81024v-38.4h-147.21024v-25.6h121.61024V460.8h-121.61024v-19.21024h121.61024v-38.4h-121.61024v-19.18976h140.8v-38.4H563.2c-6.41024-19.21024-19.21024-32.01024-25.6-51.2L479.98976 307.2c6.41024 12.8 12.8 25.6 12.8 38.4h-76.8c6.41024-6.41024 12.8-19.21024 12.8-25.6l-51.2-19.21024z m115.2 224.01024h-95.98976v-25.6h102.4v25.6h-6.41024z m0-64h-95.98976v-19.21024h102.4v19.21024h-6.41024z m0-76.8V409.6h-95.98976v-25.6h96.01024z" fill="#666666" p-id="3815"></path></svg>