<svg t="1599293219732" class="icon" viewBox="0 0 1024 1024" version="1.1" xmlns="http://www.w3.org/2000/svg" p-id="5333" width="200" height="200"><path d="M242.725926 546.133333l233.244444 0c11.377778 0 20.859259-9.481481 20.859259-20.859259 0-11.377778-9.481481-20.859259-20.859259-20.859259L242.725926 504.414815c-11.377778 0-20.859259 9.481481-20.859259 20.859259C221.866667 536.651852 231.348148 546.133333 242.725926 546.133333z" p-id="5334"></path><path d="M426.666667 616.296296 246.518519 616.296296c-11.377778 0-20.859259 9.481481-20.859259 20.859259 0 11.377778 9.481481 20.859259 20.859259 20.859259l180.148148 0c11.377778 0 20.859259-9.481481 20.859259-20.859259C447.525926 625.777778 438.044444 616.296296 426.666667 616.296296z" p-id="5335"></path><path d="M658.014815 650.42963c3.792593 3.792593 9.481481 5.688889 17.066667 5.688889 0 0 1.896296 0 1.896296 0 5.688889 0 11.377778-1.896296 15.17037-5.688889l159.288889-159.288889c3.792593-3.792593 5.688889-9.481481 5.688889-15.17037 0-5.688889-1.896296-11.377778-5.688889-15.17037-7.585185-7.585185-20.859259-7.585185-30.340741 0l-146.014815 146.014815-64.474074-64.474074c-7.585185-7.585185-20.859259-7.585185-30.340741 0-3.792593 3.792593-5.688889 9.481481-5.688889 15.17037 0 5.688889 1.896296 11.377778 5.688889 15.17037L658.014815 650.42963z" p-id="5336"></path><path d="M953.837037 265.481481l-56.888889-100.503704c-7.585185-24.651852-30.340741-43.614815-54.992593-43.614815L219.97037 121.362963c-24.651852 0-47.407407 18.962963-54.992593 43.614815l-56.888889 100.503704c-3.792593 11.377778-3.792593 34.133333-3.792593 34.133333l0 5.688889 0 11.377778 0 438.044444c0 60.681481 49.303704 109.985185 109.985185 109.985185l631.466667 0c60.681481 0 109.985185-49.303704 109.985185-109.985185L955.733333 316.681481l0 0 0-17.066667C957.62963 299.614815 955.733333 276.859259 953.837037 265.481481zM204.8 176.355556c1.896296-7.585185 9.481481-13.274074 15.17037-13.274074l620.088889 0c5.688889 0 13.274074 5.688889 15.17037 13.274074l54.992593 96.711111L149.807407 273.066667 204.8 176.355556zM919.703704 754.725926c0 39.822222-32.237037 72.059259-72.059259 72.059259L214.281481 826.785185c-39.822222 0-72.059259-32.237037-72.059259-72.059259L142.222222 316.681481l775.585185 0L917.807407 754.725926z" p-id="5337"></path></svg>