<svg t="1599293245932" class="icon" viewBox="0 0 1024 1024" version="1.1" xmlns="http://www.w3.org/2000/svg" p-id="6107" width="200" height="200"><path d="M315.392 871.424c-43.008 0-81.408-29.184-93.184-70.656l-1.536-5.12H143.36c-12.288 0-20.992-8.704-20.992-20.48V306.176C122.368 277.504 133.12 250.88 153.6 230.4c19.968-20.48 46.592-31.744 74.752-31.744h266.24c28.16 0 55.296 11.264 75.776 31.744s31.744 47.616 31.744 75.776v228.352h124.416c11.776 0 21.504 9.728 21.504 21.504 0 11.776-9.728 21.504-21.504 21.504h-124.416V752.64h41.472l1.536-5.12c11.776-41.472 50.176-70.656 93.184-70.656s81.408 29.184 93.184 70.656l1.536 5.12h48.64v-195.584c0-50.176-12.288-93.184-35.328-123.904-23.552-31.232-56.32-47.616-95.232-47.616h-148.992v-43.008h148.992c49.664 0 94.208 20.992 125.44 59.392 31.744 38.912 48.128 92.672 48.128 155.136v218.112c0 11.264-10.24 20.48-22.528 20.48h-69.632l-1.536 5.12c-11.776 41.472-50.176 70.656-93.184 70.656-43.008 0-81.408-29.184-93.184-70.656l-1.536-5.12H409.6l-1.536 5.12c-11.776 41.472-50.176 70.656-92.672 70.656z m0-150.016c-29.696 0-53.76 24.064-53.76 53.76S285.184 829.44 315.392 829.44c29.696 0 53.76-24.064 53.76-53.76s-24.064-54.272-53.76-54.272z m422.4 0c-29.696 0-53.76 24.064-53.76 53.76s24.064 53.76 53.76 53.76 53.76-24.064 53.76-53.76-24.064-53.76-53.76-53.76z m-422.4-44.032c43.008 0 81.408 29.184 93.184 70.656l1.536 5.12h148.48V306.176c0-16.896-6.656-33.28-18.944-45.056-12.288-12.288-28.16-18.944-45.056-18.944h-266.24c-34.816 0-62.976 28.672-62.976 64.512v446.464H220.16l1.536-5.12c12.288-41.984 50.688-70.656 93.696-70.656z" fill="#4D4D4D" p-id="6108"></path></svg>