<svg t="1599293181139" class="icon" viewBox="0 0 1024 1024" version="1.1" xmlns="http://www.w3.org/2000/svg" p-id="4566" width="200" height="200"><path d="M512.4 854.2l-128-159H159.1c-34.2 0-62-27.8-62-62V231.6c0-34.2 27.8-62 62-62H867c34.2 0 62 27.8 62 62v401.5c0 34.2-27.8 62-62 62H648.2L512.4 854.2zM159.1 211c-11.4 0-20.7 9.3-20.7 20.7v401.5c0 11.4 9.3 20.7 20.7 20.7h245l109.2 135.6 115.8-135.6H867c11.4 0 20.7-9.3 20.7-20.7V231.6c0-11.4-9.3-20.7-20.7-20.7H159.1z" fill="#333333" p-id="4567"></path><path d="M306.3 431.7m-50 0a50 50 0 1 0 100 0 50 50 0 1 0-100 0Z" fill="#333333" p-id="4568"></path><path d="M513 431.7m-50 0a50 50 0 1 0 100 0 50 50 0 1 0-100 0Z" fill="#333333" p-id="4569"></path><path d="M719.8 431.7m-50 0a50 50 0 1 0 100 0 50 50 0 1 0-100 0Z" fill="#333333" p-id="4570"></path></svg>