<svg t="1590644969909" class="icon" viewBox="0 0 1024 1024" version="1.1" xmlns="http://www.w3.org/2000/svg" p-id="1957" width="200" height="200"><path d="M949.8 472.1l-64-58.5V411H883L549.1 105.5l-2.7-2.2c-20.4-14.7-47.9-14.7-68.3 0L141.7 411h-2.9v2.7l-64 58.5c-12 10.9-12.8 29.5-1.8 41.5s29.5 12.8 41.5 1.8l24.3-22.2v388c0 27.6 22.5 50.1 50.1 50.1h203c28.9 0 52.4-23.5 52.4-52.4V689.6c0-16.2 13.2-29.4 29.4-29.4H551c16.2 0 29.4 13.2 29.4 29.4V879c0 28.9 23.5 52.4 52.4 52.4h203c27.6 0 50.1-22.5 50.1-50.1v-388l24.3 22.2c5.6 5.2 12.7 7.7 19.8 7.7 8 0 15.9-3.2 21.7-9.5 10.9-12 10.1-30.6-1.9-41.6zM827.1 872.6h-188v-183c0-48.6-39.5-88.1-88.1-88.1h-77.5c-48.6 0-88.1 39.5-88.1 88.1v182.9h-188v-433l314.8-288.1L827 439.5v433.1h0.1z" fill="#FC592D" p-id="1958"></path></svg>